# xmcd
#
# Track frame offsets:
# 150
# 22866
# 73829
# 96599
# 135455
# 157562
# 171228
# 195947
# 226561
# 252730
# 289811
# 311749
# 336251
#
# Disc length: 4776 seconds
#
#
# Revision: 0
# Processed by: cddbd v1.5.2PL0 Copyright (c) Steve Scherf et al.
# Submitted via: FreeRIP 2.943 
#
DISCID=ae12a60d
DTITLE=Across Tundras - Herds of the Fathomless Valleys [tour CD-R]
DYEAR=2009
DGENRE=Darkwave
TTITLE0=Weary Travelers Rest
TTITLE1=Tectonic Shifts
TTITLE2=Death Dealing Man
TTITLE3=Badlands Blues (live @ Grand Ol' Opry)
TTITLE4=Cold Ride
TTITLE5=Julia Dream (Pink Floyd cover)
TTITLE6=Blackbird Bloodred Sky (live @ Grand Ol' Opry)
TTITLE7=Old Blind John's Song
TTITLE8=Lake Bottom Blues
TTITLE9=Ramblin' In The Shadows (live @ Grand Ol' Opry)
TTITLE10=Weary Travelers Rest (demo)
TTITLE11=Where The Wild Roses Grow (Nick Cave cover)
TTITLE12=Cortez the Killer (live Neil Young cover)
EXTD=Comprised of a couple demos of songs slated for Old World Wanderer , one PINK FLOYD cover, some exclusive material and three old classics recorded live at their first and only appearance on the Grand Ol' Opry (prior to being banned for refusing to "
EXTD=turn the hell down")! These DIY recordings paint a raw but accurate picture of the vibe ACROSS TUNDRAS conveys
EXTT0=
EXTT1=
EXTT2=
EXTT3=
EXTT4=
EXTT5=
EXTT6=
EXTT7=
EXTT8=
EXTT9=
EXTT10=
EXTT11=
EXTT12=
PLAYORDER=
